<svg width="33" height="33" viewBox="0 0 33 33" fill="none" xmlns="http://www.w3.org/2000/svg">
<path d="M17.8735 14.6063H16.2397C15.6983 14.6063 15.2594 15.0452 15.2594 15.5866C15.2594 16.1279 15.6983 16.5668 16.2397 16.5668H16.8932C17.4346 16.5668 17.8735 17.0057 17.8735 17.5471C17.8735 18.0885 17.4346 18.5274 16.8932 18.5274H15.2594M16.5664 13.9528V14.6063M16.5664 18.5274V19.1809M20.4876 16.5668H20.4941M12.6453 16.5668H12.6518M10.0312 14.0835L10.0312 19.0502C10.0312 19.7822 10.0312 20.1482 10.1737 20.4278C10.299 20.6738 10.4989 20.8737 10.7449 20.999C11.0245 21.1415 11.3905 21.1415 12.1225 21.1415L21.0104 21.1415C21.7424 21.1415 22.1084 21.1415 22.388 20.999C22.6339 20.8737 22.8339 20.6738 22.9592 20.4278C23.1016 20.1482 23.1016 19.7822 23.1016 19.0502V14.0835C23.1016 13.3514 23.1016 12.9854 22.9592 12.7058C22.8339 12.4599 22.6339 12.26 22.388 12.1346C22.1084 11.9922 21.7424 11.9922 21.0104 11.9922L12.1225 11.9922C11.3905 11.9922 11.0245 11.9922 10.7449 12.1346C10.4989 12.26 10.299 12.4599 10.1737 12.7058C10.0312 12.9854 10.0312 13.3514 10.0312 14.0835ZM20.8143 16.5668C20.8143 16.7473 20.668 16.8936 20.4876 16.8936C20.3071 16.8936 20.1608 16.7473 20.1608 16.5668C20.1608 16.3864 20.3071 16.2401 20.4876 16.2401C20.668 16.2401 20.8143 16.3864 20.8143 16.5668ZM12.9721 16.5668C12.9721 16.7473 12.8258 16.8936 12.6453 16.8936C12.4648 16.8936 12.3185 16.7473 12.3185 16.5668C12.3185 16.3864 12.4648 16.2401 12.6453 16.2401C12.8258 16.2401 12.9721 16.3864 12.9721 16.5668Z" stroke="#FF5555" stroke-width="1.30704" stroke-linecap="round" stroke-linejoin="round"/>
<circle cx="16.5665" cy="16.567" r="15.3578" stroke="#FF5555" stroke-width="0.653521"/>
</svg>
